<?xml version="1.0" standalone="no"?><!DOCTYPE svg PUBLIC "-//W3C//DTD SVG 1.1//EN" "http://www.w3.org/Graphics/SVG/1.1/DTD/svg11.dtd"><svg t="1527510125824" class="icon" style="" viewBox="0 0 1024 1024" version="1.1" xmlns="http://www.w3.org/2000/svg" p-id="4786" xmlns:xlink="http://www.w3.org/1999/xlink" width="200" height="200"><defs><style type="text/css"></style></defs><path d="M512 0C229.68 0 0 229.68 0 512s229.68 512 512 512 512-229.68 512-512S794.32 0 512 0z m0 967.11C261.06 967.11 56.89 762.94 56.89 512S261.06 56.89 512 56.89 967.11 261.06 967.11 512 762.94 967.11 512 967.11z" p-id="4787"></path><path d="M768 483.56H540.44V256a28.44 28.44 0 1 0-56.89 0v227.56H256a28.44 28.44 0 1 0 0 56.89h227.56V768a28.44 28.44 0 1 0 56.89 0V540.44H768a28.44 28.44 0 0 0 0-56.89z" p-id="4788"></path></svg>