<?xml version="1.0" standalone="no"?><!DOCTYPE svg PUBLIC "-//W3C//DTD SVG 1.1//EN" "http://www.w3.org/Graphics/SVG/1.1/DTD/svg11.dtd"><svg class="icon" width="200px" height="200.00px" viewBox="0 0 1024 1024" version="1.1" xmlns="http://www.w3.org/2000/svg"><path fill="#333333" d="M415.18848 262.72768c3.02336-30.17728 16.29952-61.73184 42.24768-86.9888 15.5648-15.15008 34.70336-16.1792 55.8336-5.56032 11.7504 5.90336 22.80448 13.03296 33.11104 21.00992 26.51904 20.5184 56.82432 26.21952 89.3056 24.94208 15.59552-0.61184 31.21408-2.70336 46.79936 0.59392 23.616 4.99712 34.03008 19.0336 29.37088 42.81344-6.03392 30.82496-20.4288 57.49504-43.41504 79.30368-16.77568 15.91552-35.3792 29.26336-55.42912 40.72448-4.81024 2.752-9.40032 3.32032-14.6304 1.65888-10.93888-3.47648-22.0288-6.49216-32.9344-10.08128-20.00128-6.58944-39.09376-1.87392-58.12736 4.15488-8.23552 2.60864-16.50432 4.82304-25.24928 4.98688-16.02816 0.29952-28.35456-3.70688-36.47232-20.00896-14.57664-29.28128-29.91104-57.95584-30.41024-97.5488zM813.2608 705.42592c-4.4544-52.51584-23.2704-99.89888-51.136-143.86432-36.68992-57.88672-86.31552-104.10752-137.10592-149.15328-2.5344-2.24512-5.4912-2.94144-8.64512-3.6992-14.30528-3.43296-29.5296-2.624-43.28448-7.92064-22.016-8.47616-43.37408-7.35232-65.55392-0.41984-23.49056 7.33952-46.5664 5.95456-68.21376-7.7184-9.7152-6.13632-19.68128-11.85792-29.05344-18.55232-18.45248-13.184-36.74112-26.71104-59.36128-32.25344-12.61312-3.08992-21.35552 0.8448-23.8976 10.8288-2.60608 10.2272 1.86112 16.14848 15.12192 19.94496 16.75008 4.79232 31.104 13.74208 45.9136 25.5488-21.95968 4.36736-41.5488 10.74432-61.18144 16.9344-11.24864 3.5456-15.78496 11.73248-12.39808 20.91264 3.65568 9.91232 11.25888 13.14304 22.37696 9.51552 9.40288-3.06944 18.71872-6.45632 28.23424-9.11872 13.7984-3.85792 27.62496-8.03072 44.2624-6.0928-4.92032 4.32896-8.40704 7.51872-12.02176 10.56-39.80544 33.46432-76.28288 70.01088-105.4208 113.39008-20.13696 29.98016-35.71712 61.94944-42.0096 97.82016-10.0864 57.49504 6.00576 108.16 41.28256 153.3952 27.04384 34.6752 58.51136 64.18944 99.54304 82.06592 34.58304 15.06048 70.78912 23.59552 108.20608 27.27424 73.088 7.1808 144.0384 0.704 211.4944-31.31392 70.02112-33.23392 109.38624-100.94848 102.848-178.08384z m-209.28 94.7584c-9.536 4.6592-19.4048 8.36608-29.93408 9.65888-6.76608 0.83968-9.2544 3.71968-8.51456 10.58048 0.60928 5.68064 0.33024 11.52-0.15616 17.23904-1.03424 12.1088-10.75456 21.4144-22.56896 22.06976-12.21376 0.68096-23.104-7.9104-25.08032-20.34432-0.79616-5.00992-1.25952-10.33472-0.44032-15.27552 1.78432-10.75968-3.04896-14.1952-13.01248-15.77472-19.6864-3.13088-36.95872-11.80416-51.06432-26.23488-8-8.18432-13.34784-17.8944-16.14336-28.92032-2.688-10.59072 1.32864-21.30432 9.01376-25.20064 8.37376-4.23936 17.00864-1.43616 24.5888 8.86016 10.04544 13.63968 19.16672 28.08064 35.1104 35.88608 3.36128 1.64608 6.56896 3.96544 11.328 3.15392 0-31.30112-0.08448-62.59456 0.07936-93.89056 0.0256-5.09952-3.4048-5.3504-6.73536-6.30016-16.60928-4.74624-32.94976-9.79456-46.44096-21.56032a76.51072 76.51072 0 0 1 21.04576-129.14176c7.97696-3.32032 15.9872-6.6304 24.65536-7.37792 6.11072-0.5248 8.03584-3.36128 7.50592-9.25952-0.48128-5.3888-0.32512-10.87744 0.01536-16.2944 0.90112-14.36928 11.20512-24.1152 24.8448-23.79008 13.1712 0.31232 22.81472 10.0992 23.5008 24.09216 0.4096 8.27392-2.42944 18.66496 1.56928 24.25856 3.97056 5.55008 14.81984 5.95968 22.41024 9.18784 15.18592 6.45632 28.7104 15.30368 38.656 28.864 4.27008 5.82144 6.63552 12.3264 7.1808 19.51744 0.64512 8.60416-2.58048 15.13728-10.71616 18.42688-7.68 3.10784-14.90944 2.71616-20.96896-4.032-8.72448-9.71008-15.99488-20.92032-27.57376-27.73504-2.88-1.69472-5.86496-5.4912-9.20576-3.63776-2.84928 1.58208-1.18016 5.84704-1.19552 8.89344-0.11008 22.69696 0.30976 45.40928-0.26624 68.09856-0.2048 8.128 1.96096 11.45344 10.28096 13.21216 20.61056 4.35712 39.23968 12.82304 53.62944 29.27616 26.12736 29.8752 25.95584 98.39616-25.39776 123.4944zM565.66016 733.22496c0-10.83392-0.02048-21.67552 0.01024-32.51456 0.02048-10.25536 0.2688-10.46016 10.07104-6.40512 13.92896 5.76512 23.35488 15.71072 25.47456 30.87104 2.40128 17.14432-4.11392 31.3088-17.41568 42.07616-4.8256 3.90912-10.90048 10.19392-16.37888 7.77984-4.52096-1.98912-1.44128-10.42944-1.66912-15.98464-0.34816-8.59392-0.09216-17.21344-0.09216-25.82272zM517.12512 591.19872c-0.00512 11.17696-0.37888 22.36672 0.13056 33.5232 0.33024 7.17568-2.21952 6.97088-7.66464 4.87936-20.94592-8.03584-30.2848-19.58144-29.63968-37.37856 0.6784-18.71104 12.1728-33.0624 30.1696-38.63296 5.52448-1.71008 7.31904-1.03936 7.10912 5.04064-0.37632 10.84416-0.10496 21.7088-0.10496 32.56832z" /></svg>