<?xml version="1.0" standalone="no"?><!DOCTYPE svg PUBLIC "-//W3C//DTD SVG 1.1//EN" "http://www.w3.org/Graphics/SVG/1.1/DTD/svg11.dtd"><svg t="1528376929364" class="icon" style="" viewBox="0 0 1024 1024" version="1.1" xmlns="http://www.w3.org/2000/svg" p-id="2081" xmlns:xlink="http://www.w3.org/1999/xlink" width="200" height="200"><defs><style type="text/css"></style></defs><path d="M164.701091 352.605091a58.88 58.88 0 0 1-19.316364 43.682909c62.650182 47.918545 163.421091 149.434182 163.421091 149.434182s121.786182-248.157091 176.802909-341.294546a68.096 68.096 0 1 1 52.642909-0.325818c54.923636 92.974545 176.942545 341.573818 176.942546 341.573818s100.770909-101.492364 163.397818-149.434181a59.112727 59.112727 0 0 1 39.773091-102.795637 59.112727 59.112727 0 0 1 4.398545 118.016c-20.945455 125.905455-108.148364 539.159273-108.148363 539.159273H209.384727S122.158545 537.367273 101.189818 411.485091a59.066182 59.066182 0 1 1 63.511273-58.88z" p-id="2082"></path></svg>