<?xml version="1.0" standalone="no"?><!DOCTYPE svg PUBLIC "-//W3C//DTD SVG 1.1//EN" "http://www.w3.org/Graphics/SVG/1.1/DTD/svg11.dtd"><svg t="1527507508702" class="icon" style="" viewBox="0 0 1024 1024" version="1.1" xmlns="http://www.w3.org/2000/svg" p-id="3246" xmlns:xlink="http://www.w3.org/1999/xlink" width="200" height="200"><defs><style type="text/css"></style></defs><path d="M512 0C229.23 0 0 229.23 0 512s229.23 512 512 512 512-229.23 512-512S794.77 0 512 0z m316.78 828.78a446.4 446.4 0 1 1 96-142.42 446.59 446.59 0 0 1-96 142.42z" p-id="3247"></path><path d="M672 512a32 32 0 0 0 0-64H557.25l137.38-137.37a32 32 0 0 0-45.25-45.25L512 402.75 374.63 265.37a32 32 0 0 0-45.25 45.25L466.75 448H352a32 32 0 0 0 0 64h128v64H352a32 32 0 0 0 0 64h128v96a32 32 0 0 0 64 0v-96h128a32 32 0 0 0 0-64H544v-64h128z" p-id="3248"></path></svg>