<?xml version="1.0" standalone="no"?><!DOCTYPE svg PUBLIC "-//W3C//DTD SVG 1.1//EN" "http://www.w3.org/Graphics/SVG/1.1/DTD/svg11.dtd"><svg t="1528376797019" class="icon" style="" viewBox="0 0 1024 1024" version="1.1" xmlns="http://www.w3.org/2000/svg" p-id="10381" xmlns:xlink="http://www.w3.org/1999/xlink" width="200" height="200"><defs><style type="text/css"></style></defs><path d="M811.627 110.66H530.413c-8.284 0-15 6.716-15 15v774.68c0 8.284 6.716 15 15 15h281.214c8.284 0 15-6.716 15-15V125.66c0-8.284-6.716-15-15-15z m-15 108.754H681.01c-8.284 0-15 6.716-15 15s6.716 15 15 15h115.617v62.199H646.284c-8.284 0-15 6.716-15 15s6.716 15 15 15h150.343v69.44H688.06c-8.284 0-15 6.716-15 15s6.716 15 15 15h108.567v65.82H688.06c-8.284 0-15 6.716-15 15s6.716 15 15 15h108.567v63.482H646.284c-8.284 0-15 6.716-15 15s6.716 15 15 15h150.343v66.988H679.841c-8.284 0-15 6.716-15 15s6.716 15 15 15h116.786v57.639H688.06c-8.284 0-15 6.716-15 15s6.716 15 15 15h108.567v70.357H545.413V140.66h251.214v78.754zM435.351 313.852a14.94 14.94 0 0 0-2.36-8.081L327.734 121.167a15 15 0 0 0-26.062 0L196.044 306.422a14.985 14.985 0 0 0-1.945 8.159 14.93 14.93 0 0 0-1.135 5.72V900.34c0 8.284 6.716 15 15 15h213.819c8.284 0 15-6.716 15-15V320.301c0-2.282-0.524-4.437-1.437-6.374 0.002-0.025 0.005-0.05 0.005-0.075zM314.704 158.88l79.808 139.972H234.895l79.809-139.972z m92.08 726.46h-183.82v-69.325h183.819v69.325z m0-99.325h-183.82V335.301h183.819v450.714z" p-id="10382"></path></svg>